# xmcd CD database file
#
# Track frame offsets:
#	150
#	17731
#	37481
#	53913
#	76801
#	104216
#	120974
#	135656
#	154878
#	172515
#	191989
#	206915
#	222661
#
# Disc length: 3213 seconds
#
# Revision: 0
# Processed by: cddbd v1.5.2PL0 Copyright (c) Steve Scherf et al.
# Submitted via: CDex 1.51
#
DISCID=c00c8b0d
DTITLE=The Rounders - Wish I Had You
DYEAR=2007
DGENRE=Blues
TTITLE0=God Knows I'm Trying
TTITLE1=Wish I Had You
TTITLE2=My Getaway
TTITLE3=You Know Better Than That
TTITLE4=Through No Fault Of My Own
TTITLE5=Oh, My Dear Mind
TTITLE6=When It's Bad
TTITLE7=Oh Why
TTITLE8=Let Me Talk at You
TTITLE9=Wait For Me
TTITLE10=Leave My Trunk Behind
TTITLE11=It Wasn't My Baby
TTITLE12=Goodbye, George
EXTD=YEAR: 2007
EXTT0=
EXTT1=
EXTT2=
EXTT3=
EXTT4=
EXTT5=
EXTT6=
EXTT7=
EXTT8=
EXTT9=
EXTT10=
EXTT11=
EXTT12=
PLAYORDER=
